<svg width="18" height="17" viewBox="0 0 18 17" fill="none" xmlns="http://www.w3.org/2000/svg">
<path d="M1.00785 0.157088C0.535537 0.324435 0.159917 0.763256 0.0409091 1.29133C0.018595 1.3843 0 1.97559 0 2.63382V3.81641H8.96653H17.9293L17.9182 2.59663L17.907 1.38058L17.7992 1.15745C17.6541 0.863664 17.2711 0.488063 16.9587 0.328154C16.5347 0.116181 16.412 0.0975873 15.3149 0.0975873H14.3219L14.3107 1.03473C14.2996 1.90865 14.2959 1.98303 14.2252 2.076C14.1471 2.18756 13.8942 2.32888 13.7789 2.32888C13.6636 2.32888 13.4107 2.18756 13.3326 2.076C13.262 1.98303 13.2583 1.90865 13.2471 1.03473L13.236 0.0975873H8.73967H4.23967V0.993823C4.23967 1.84915 4.23595 1.8975 4.15785 2.03509C4.05744 2.2136 3.80826 2.34747 3.63719 2.314C3.45868 2.28053 3.2876 2.15409 3.22066 2.0165C3.17231 1.91237 3.16116 1.74131 3.16116 0.993823V0.0975873H2.16818C1.3686 0.101306 1.13802 0.112463 1.00785 0.157088Z" fill="black"/>
<path d="M0 10.2772C0 14.5911 0.011157 15.6212 0.0520661 15.7737C0.174793 16.2385 0.45 16.5806 0.847934 16.7703L1.09711 16.8893L8.73967 16.9005C15.6496 16.9079 16.4008 16.9042 16.5868 16.8484C17.2227 16.6662 17.736 16.205 17.9219 15.6509C18 15.4241 18 15.3795 18 10.1954V4.97049H9H0V10.2772ZM5.1843 7.10509C5.25124 7.13112 5.3405 7.20178 5.38512 7.25756C5.46322 7.35425 5.46694 7.39516 5.46694 8.15751C5.46694 9.03887 5.45207 9.11697 5.23264 9.24713C5.12479 9.31407 5.04298 9.3215 4.33264 9.3215C3.49215 9.3215 3.43264 9.31035 3.29504 9.12441C3.22066 9.024 3.21694 8.97193 3.21694 8.18726C3.21694 7.02699 3.18719 7.05674 4.3438 7.05674C4.8719 7.05302 5.09132 7.0679 5.1843 7.10509ZM9.6062 7.10509C9.67314 7.13112 9.75868 7.19062 9.79959 7.23897C9.87025 7.31706 9.87397 7.37284 9.87397 8.20958V9.09837L9.76983 9.19878L9.66942 9.30291H8.78058H7.89174L7.79504 9.21366C7.63884 9.06491 7.61653 8.91987 7.6314 8.10545C7.64628 7.03815 7.62769 7.05674 8.76942 7.05674C9.2938 7.05302 9.51694 7.0679 9.6062 7.10509ZM14.1211 7.11252C14.3628 7.23153 14.374 7.27243 14.374 8.16867C14.374 8.60749 14.3628 9.01656 14.3442 9.07234C14.3293 9.12813 14.2624 9.20622 14.1955 9.24713C14.0876 9.31407 14.0058 9.3215 13.2657 9.3215C12.0756 9.3215 12.124 9.36985 12.124 8.17611C12.124 7.39516 12.1277 7.35425 12.2058 7.25756C12.3471 7.07534 12.4512 7.05674 13.2508 7.05302C13.8645 7.05302 14.0132 7.06418 14.1211 7.11252ZM5.2438 12.1664C5.45579 12.2742 5.47066 12.3635 5.4595 13.256C5.44463 14.3977 5.48182 14.3605 4.29545 14.3605C3.5405 14.3605 3.51074 14.3568 3.39545 14.275C3.21694 14.1485 3.19091 13.9961 3.20579 13.1482C3.21694 12.4713 3.22438 12.4044 3.29504 12.3077C3.43264 12.1218 3.49215 12.1106 4.3438 12.1106C4.97975 12.1106 5.15826 12.1218 5.2438 12.1664ZM9.66942 12.1664C9.87397 12.2742 9.89256 12.3598 9.89256 13.2523C9.89256 14.4237 9.92975 14.394 8.68017 14.3717C7.60909 14.3568 7.62769 14.3754 7.62769 13.2337C7.62397 12.449 7.64628 12.3337 7.82851 12.1924C7.92893 12.1143 7.96612 12.1106 8.74711 12.1106C9.40165 12.1106 9.58388 12.1218 9.66942 12.1664ZM14.1285 12.159C14.1769 12.1813 14.255 12.2519 14.2959 12.3077C14.3702 12.4081 14.374 12.4602 14.374 13.2449C14.374 14.4051 14.4037 14.3754 13.2471 14.3754C12.4624 14.3791 12.3471 14.3568 12.2058 14.1746C12.1277 14.0742 12.124 14.037 12.124 13.256C12.124 12.066 12.0756 12.1143 13.2397 12.1143C13.8012 12.1106 14.0653 12.1255 14.1285 12.159Z" fill="black"/>
</svg>
