<svg width="41" height="51" viewBox="0 0 41 51" fill="none" xmlns="http://www.w3.org/2000/svg">
<path d="M2.9905 0.206081C2.24542 0.500195 1.4023 1.34332 1.12779 2.0884L0.912109 2.65702L0.931717 21.6959L0.961128 40.7348L1.20622 41.225C1.51014 41.8524 2.1964 42.5387 2.82384 42.8426L3.31403 43.0877L12.6962 43.1171L22.0686 43.1367L22.1078 39.7838L22.1372 36.4211L21.8235 35.8329C21.4216 35.0584 20.9608 33.7349 20.7451 32.7251C20.5392 31.735 20.5196 29.7644 20.7059 28.7252C21.1078 26.4801 22.2157 24.2841 23.8137 22.5586C26.5391 19.6273 30.5979 18.294 34.4213 19.0783C34.8135 19.1567 35.2056 19.2548 35.2841 19.2842C35.4017 19.3234 35.4213 18.2352 35.4213 10.9902C35.4213 2.68643 35.4213 2.65702 35.2056 2.0884C34.9213 1.31391 34.1076 0.500195 33.3331 0.215885L32.7645 0.000202179L18.1373 0.010006C3.64736 0.010006 3.5101 0.010006 2.9905 0.206081ZM24.3431 8.0981C25.3921 8.71574 25.3921 10.1079 24.3431 10.7255C24.0098 10.9314 23.8823 10.9314 16.9903 10.9314C10.0982 10.9314 9.97078 10.9314 9.63745 10.7255C8.40218 10.0098 8.66688 8.27457 10.059 7.94125C10.2257 7.89223 13.4413 7.86282 17.1863 7.87262C23.8725 7.89223 24.0098 7.89223 24.3431 8.0981ZM24.3431 14.3725C25.3921 14.9901 25.3921 16.3823 24.3431 16.9999C24.0098 17.2058 23.8823 17.2058 16.9903 17.2058C10.0982 17.2058 9.97078 17.2058 9.63745 16.9999C8.40218 16.2842 8.66688 14.549 10.059 14.2156C10.2257 14.1666 13.4413 14.1372 17.1863 14.147C23.8725 14.1666 24.0098 14.1666 24.3431 14.3725ZM18.853 20.6469C19.902 21.2645 19.902 22.6567 18.853 23.2743C18.5196 23.4704 18.3726 23.4802 14.2452 23.4802C10.1178 23.4802 9.97078 23.4704 9.63745 23.2743C8.40218 22.5586 8.66688 20.8234 10.059 20.4802C10.2257 20.441 12.206 20.4116 14.4413 20.4214C18.353 20.441 18.5196 20.4508 18.853 20.6469Z" fill="url(#paint0_linear_1101_10852)"/>
<path d="M30.1767 22.1665C27.7552 22.7547 25.5984 24.5194 24.4905 26.7938C23.8827 28.0585 23.6572 29.0683 23.6572 30.5879C23.6572 32.1467 23.8827 33.1369 24.5396 34.4604C25.5984 36.5976 27.3925 38.1172 29.7356 38.872C30.8532 39.2348 32.8139 39.323 34.059 39.0681C37.3629 38.4015 40.0785 35.7054 40.755 32.431C40.9805 31.3428 40.9609 29.5683 40.7158 28.5291C39.9805 25.4507 37.4217 22.8919 34.3433 22.1567C33.2159 21.8919 31.2944 21.8919 30.1767 22.1665ZM35.3433 27.0193C35.9413 27.3232 36.2845 28.1075 36.0688 28.7154C35.8629 29.333 32.6081 34.0976 32.2551 34.3133C32.059 34.4309 31.7649 34.5094 31.4806 34.5094C31.0689 34.5094 30.8924 34.4211 29.5493 33.529C27.9121 32.4506 27.6768 32.1859 27.6768 31.4604C27.6768 30.6565 28.3336 29.9898 29.1473 29.98C29.4414 29.98 29.6865 30.0683 30.0591 30.2938C30.8924 30.8232 31.0885 30.931 31.1375 30.882C31.1571 30.8526 31.6865 30.0585 32.3139 29.1075C32.9414 28.1664 33.5394 27.3134 33.6473 27.2154C34.108 26.7938 34.7453 26.7252 35.3433 27.0193Z" fill="url(#paint1_linear_1101_10852)"/>
<path d="M25.2256 44.5484C25.2256 48.9796 25.2354 49.1757 25.4217 49.4894C25.7158 49.96 26.1569 50.1953 26.7942 50.1953C27.304 50.1953 27.451 50.1267 29.8039 48.7836L32.2843 47.362L34.7548 48.7836C37.1175 50.1267 37.2646 50.1953 37.7744 50.1953C38.4116 50.1953 38.8528 49.96 39.1469 49.4894C39.3332 49.1757 39.343 48.9796 39.343 44.5484V39.921L38.5587 40.4406C35.4215 42.5092 31.1961 42.8425 27.6373 41.3229C27.1765 41.117 26.4413 40.7249 26.0099 40.4406L25.2256 39.921V44.5484Z" fill="url(#paint2_linear_1101_10852)"/>
<defs>
<linearGradient id="paint0_linear_1101_10852" x1="-2.05642" y1="43.1367" x2="163.056" y2="34.5426" gradientUnits="userSpaceOnUse">
<stop stop-color="#253466"/>
<stop offset="0.184592" stop-color="#413660"/>
<stop offset="1" stop-color="#E5413F"/>
</linearGradient>
<linearGradient id="paint1_linear_1101_10852" x1="22.1729" y1="39.2139" x2="104.607" y2="33.8503" gradientUnits="userSpaceOnUse">
<stop stop-color="#253466"/>
<stop offset="0.184592" stop-color="#413660"/>
<stop offset="1" stop-color="#E5413F"/>
</linearGradient>
<linearGradient id="paint2_linear_1101_10852" x1="24.0112" y1="50.1953" x2="91.2033" y2="44.1884" gradientUnits="userSpaceOnUse">
<stop stop-color="#253466"/>
<stop offset="0.184592" stop-color="#413660"/>
<stop offset="1" stop-color="#E5413F"/>
</linearGradient>
</defs>
</svg>
