<svg width="17" height="19" viewBox="0 0 17 19" fill="none" xmlns="http://www.w3.org/2000/svg">
<path d="M2.66209 0.553368C1.75813 0.740196 0.961417 1.28573 0.478793 2.03678C0.229821 2.42912 0.0804373 2.86255 0.0383035 3.3371C0.0191517 3.55381 0.00383035 6.31512 0 9.62944C0 14.7522 0.00766069 15.5818 0.0574552 15.8657C0.241312 16.8933 0.907792 17.749 1.87687 18.1973C2.54718 18.5075 1.83857 18.4813 9.37669 18.4925L16.0951 18.5L16.3211 18.4028C16.5777 18.2908 16.7846 18.089 16.9071 17.8312L16.9876 17.6593L16.9991 11.6621C17.0029 7.74622 16.9952 5.60518 16.9684 5.48935C16.911 5.22779 16.7424 4.99238 16.4475 4.76072C15.9802 4.39827 15.781 3.99099 15.8347 3.51645C15.8806 3.12038 16.0108 2.94102 16.5854 2.47395C16.865 2.24229 16.9838 1.9882 16.9838 1.61081C16.9838 1.15869 16.7616 0.796244 16.3671 0.601944L16.1832 0.50853L9.55671 0.501057C3.79204 0.49732 2.89574 0.501057 2.66209 0.553368ZM13.5364 3.00081C13.4713 3.30347 13.4713 4.06572 13.5364 4.36465L13.5901 4.60005H8.41144C5.43909 4.60005 3.17153 4.5851 3.08726 4.56268C2.88425 4.51784 2.6506 4.35344 2.51271 4.15914C2.42078 4.03209 2.39397 3.94989 2.38248 3.76306C2.37481 3.63228 2.38631 3.4604 2.41312 3.38567C2.49739 3.13532 2.77317 2.90366 3.10258 2.80277C3.15621 2.78782 5.53485 2.77288 8.39229 2.77288L13.5862 2.76914L13.5364 3.00081Z" fill="black"/>
</svg>
