<svg width="10" height="6" viewBox="0 0 10 6" fill="none" xmlns="http://www.w3.org/2000/svg">
<path d="M1.2618 0.484912C1.02283 0.22423 0.611819 0.224326 0.372967 0.48512C0.161913 0.715565 0.161965 1.06909 0.373089 1.29947L4.45412 5.75277C4.5255 5.83112 4.61037 5.8933 4.70385 5.93573C4.79734 5.97816 4.89759 6 4.99884 6C5.1001 6 5.20035 5.97816 5.29384 5.93573C5.38732 5.8933 5.47219 5.83112 5.54356 5.75277L9.62673 1.29945C9.83792 1.06913 9.83793 0.715562 9.62677 0.485217C9.38802 0.224774 8.97742 0.224756 8.73864 0.485176L5 4.56269L1.2618 0.484912Z" fill="black"/>
</svg>
