<svg width="51" height="50" viewBox="0 0 51 50" fill="none" xmlns="http://www.w3.org/2000/svg">
<path d="M25.3998 0.14794C23.642 0.470205 21.6498 1.34911 20.1655 2.47216C17.5678 4.41552 15.8686 7.25731 15.3315 10.5288C15.0776 12.062 15.1655 14.1128 15.5659 15.646C16.2592 18.3511 17.9682 20.8999 20.1948 22.5698C23.2319 24.8257 27.0991 25.5874 30.81 24.6499C33.1342 24.064 35.0678 22.9214 36.767 21.1245C38.2514 19.5522 39.2768 17.7163 39.8139 15.646C40.058 14.6987 40.1166 14.23 40.1557 13.019C40.2241 11.2515 40.058 10.0503 39.5405 8.48778C38.1049 4.18114 34.3451 0.919424 29.892 0.138174C28.808 -0.0473728 26.4643 -0.0473728 25.3998 0.14794ZM31.6791 8.68309C32.5092 9.10301 32.9291 9.99169 32.7436 10.8999C32.6557 11.3393 32.4897 11.5249 30.2338 13.7905C28.9155 15.1284 27.6655 16.3003 27.4701 16.4077C27.0014 16.6518 26.2983 16.6518 25.7807 16.3979C25.2436 16.1343 22.9487 13.8198 22.7436 13.3218C22.2358 12.0913 23.0561 10.685 24.3549 10.5581C25.0092 10.4995 25.4487 10.6655 26.0639 11.2319C26.3569 11.4956 26.6303 11.7104 26.6791 11.7104C26.7182 11.7104 27.392 11.0659 28.1733 10.2847C28.9545 9.50341 29.7455 8.78075 29.9311 8.68309C30.3901 8.42919 31.1909 8.42919 31.6791 8.68309Z" fill="url(#paint0_linear_1101_10812)"/>
<path d="M1.79624 4.41541C1.17124 4.74744 0.800144 5.32361 0.751316 6.0365C0.682956 7.01306 1.04428 7.70642 1.84507 8.11658C2.18686 8.29236 2.4603 8.33142 3.63217 8.37048L5.02866 8.41931L5.07749 8.72205C5.09702 8.88806 5.65366 14.9135 6.28842 22.1107C7.53842 36.0756 7.52866 35.9584 8.17319 37.2279C8.60288 38.0873 8.98374 38.6146 9.6771 39.347L10.2826 39.9818L9.92124 40.5775C9.15952 41.8373 8.86655 43.5658 9.16928 45.0111C9.65757 47.3451 11.513 49.2787 13.808 49.8549C14.7748 50.099 16.4837 50.0111 17.431 49.6693C19.1888 49.0443 20.6244 47.5795 21.2494 45.7924C21.6009 44.7767 21.6205 42.7357 21.2884 41.8568C21.2201 41.7006 21.5228 41.6908 26.7474 41.6908C29.7845 41.6908 32.2748 41.7103 32.2748 41.7299C32.2748 41.7592 32.2064 42.0717 32.1185 42.4427C31.8939 43.3998 31.972 44.8353 32.3041 45.7728C32.9486 47.6185 34.306 48.9857 36.1615 49.6791C37.0306 50.0013 38.7298 50.0892 39.7357 49.8549C41.4349 49.4545 43.0365 48.1849 43.7884 46.6517C44.306 45.597 44.4818 44.8744 44.4818 43.7904C44.4818 42.6674 44.2865 41.8568 43.7982 40.9095C43.0365 39.4642 41.7279 38.3412 40.1556 37.8138L39.3548 37.5404L26.9037 37.4916C16.8744 37.4525 14.3841 37.4135 14.1107 37.306C13.515 37.0814 12.7142 36.4857 12.3333 35.9779C11.8939 35.392 11.8744 35.2455 12.2357 35.2455C13.183 35.2552 44.5306 33.3705 44.9603 33.2826C45.6439 33.1459 46.2591 32.5892 46.474 31.9447C46.9037 30.6166 50.7318 14.9818 50.7318 14.5424C50.7318 13.7123 50.2826 13.0385 49.5111 12.6771C49.1791 12.5209 48.8666 12.4916 47.3822 12.4916C45.8392 12.4916 45.6048 12.5111 45.263 12.6869C44.6478 12.9994 44.4916 13.3217 44.2865 14.6888C43.681 18.6146 42.2455 21.476 39.5111 24.2201C37.4701 26.2611 35.39 27.5306 32.763 28.351C30.8587 28.9369 30.1361 29.0443 27.8314 29.0443C26.0931 29.0443 25.6146 29.015 24.6966 28.8295C19.013 27.6674 14.433 23.849 12.3236 18.4877C11.9037 17.4232 11.5326 15.9779 11.3763 14.8353C11.3177 14.3763 11.2201 13.8392 11.1712 13.6439C11.0443 13.1654 10.5755 12.7064 10.0482 12.5697C9.81382 12.5013 9.6185 12.3939 9.6185 12.3256C9.6185 12.267 9.49155 10.7533 9.32553 8.98572C8.98374 5.1283 8.90561 4.87439 7.93882 4.37634C7.60678 4.21033 7.33335 4.1908 4.90171 4.1908C2.29428 4.1908 2.21616 4.20056 1.79624 4.41541Z" fill="url(#paint1_linear_1101_10812)"/>
<defs>
<linearGradient id="paint0_linear_1101_10812" x1="13.0395" y1="25.0422" x2="132.389" y2="17.2958" gradientUnits="userSpaceOnUse">
<stop stopColor="#253466"/>
<stop offset="0.184592" stopColor="#413660"/>
<stop offset="1" stopColor="#E5413F"/>
</linearGradient>
<linearGradient id="paint1_linear_1101_10812" x1="-3.55693" y1="49.9936" x2="235.063" y2="33.0497" gradientUnits="userSpaceOnUse">
<stop stopColor="#253466"/>
<stop offset="0.184592" stopColor="#413660"/>
<stop offset="1" stopColor="#E5413F"/>
</linearGradient>
</defs>
</svg>
