<svg width="50" height="50" viewBox="0 0 50 50" fill="none" xmlns="http://www.w3.org/2000/svg">
<path d="M38.7728 0.175673C37.3459 0.556821 35.88 1.42662 34.9809 2.40392C33.4954 4.03602 32.7135 6.44018 32.9774 8.56093C33.212 10.4178 33.9254 11.8642 35.2447 13.1738C36.9257 14.8352 38.6555 15.4998 41.0695 15.402C42.037 15.3629 42.3888 15.3043 43.0827 15.06C44.275 14.6495 45.135 14.1413 45.9755 13.3399C48.7315 10.7208 49.2299 6.60632 47.1776 3.46918C46.1612 1.89572 44.8028 0.869557 42.9263 0.253858C42.0174 -0.0491066 39.7599 -0.0881987 38.7728 0.175673ZM42.555 1.88595C44.3727 2.46256 45.9169 4.01647 46.5033 5.84403C46.816 6.82133 46.8551 8.15046 46.601 9.16685C46.171 10.8967 44.9396 12.4017 43.3466 13.1542C42.3009 13.6527 41.6656 13.7993 40.5808 13.7895C38.9683 13.7602 37.6098 13.1836 36.4175 12.001C35.2447 10.838 34.6975 9.6555 34.5997 8.03318C34.4825 6.23495 35.0591 4.75922 36.3686 3.43986C37.385 2.42347 38.5578 1.80777 39.8967 1.60253C40.5124 1.51458 41.8122 1.6514 42.555 1.88595Z" fill="url(#paint0_linear_1101_10819)"/>
<path d="M39.5843 2.96103C36.9847 3.52787 35.3135 6.30341 35.9878 8.90303C36.2908 10.0758 37.0726 11.1606 38.0792 11.7958C39.5843 12.7536 41.7734 12.7536 43.2785 11.7958C45.2624 10.5351 46.054 7.98436 45.1549 5.79521C44.5587 4.37812 43.2394 3.27377 41.7148 2.95126C40.9232 2.78512 40.3759 2.78512 39.5843 2.96103ZM42.7019 6.10794C42.7996 6.1959 42.8778 6.40114 42.8778 6.5575C42.8778 6.8116 42.6726 7.0657 41.578 8.16028C40.0045 9.73374 40.0143 9.72396 39.1054 8.85416C38.4213 8.19937 38.3138 7.86709 38.6754 7.50549C38.949 7.23184 39.2031 7.26116 39.5843 7.60322C39.77 7.75959 39.9654 7.89641 40.0143 7.89641C40.0534 7.89641 40.5323 7.45662 41.0698 6.91911C42.0959 5.89294 42.3305 5.77566 42.7019 6.10794Z" fill="url(#paint1_linear_1101_10819)"/>
<path d="M19.2762 0.811096C17.263 1.36816 15.6015 3.04912 15.0738 5.06236C14.8588 5.88329 14.849 7.27106 15.0543 8.06268C15.8556 11.1216 18.9146 13.0665 21.9736 12.4508C23.1072 12.2162 24.0748 11.7373 24.8664 10.9946C26.176 9.77296 26.7819 8.40473 26.7819 6.62604C26.7917 5.92239 26.733 5.41419 26.6157 5.0135C26.0098 2.97093 24.3582 1.32907 22.3938 0.820869C21.651 0.625409 19.9603 0.625409 19.2762 0.811096Z" fill="url(#paint2_linear_1101_10819)"/>
<path d="M33.7003 13.9751C33.4267 14.8742 32.2246 19.5066 32.2246 19.7021C32.2246 20.0148 32.5667 20.308 32.9185 20.308C33.0846 20.308 33.7687 20.0637 34.4529 19.7705C35.1272 19.4676 35.7136 19.2623 35.7527 19.3014C35.782 19.3503 36.1729 19.8683 36.6127 20.4742C37.5118 21.6958 37.7855 21.8717 38.2741 21.5101C38.4891 21.344 38.6064 21.0215 39.0853 19.2721C39.8476 16.4966 39.8085 16.7116 39.5348 16.6529C38.5478 16.4575 37.7757 16.2425 37.1893 15.9981C36.3097 15.6365 35.0588 14.7961 34.4235 14.1608C34.1597 13.8872 33.9153 13.6624 33.8762 13.6624C33.8372 13.6624 33.759 13.809 33.7003 13.9751Z" fill="url(#paint3_linear_1101_10819)"/>
<path d="M46.9333 14.1609C46.3079 14.7961 45.0472 15.6366 44.1774 15.9982C43.4835 16.2816 42.3791 16.5944 42.0371 16.5944C41.5777 16.6041 41.5777 16.6628 42.2032 18.9985C42.6821 20.8163 42.8385 21.2756 43.0339 21.4516C43.2782 21.6763 43.5128 21.7252 43.7962 21.6177C43.8842 21.5884 44.3142 21.0704 44.7442 20.4645C45.184 19.8683 45.5749 19.3406 45.614 19.3015C45.6531 19.2624 46.2395 19.4676 46.9236 19.7706C47.6077 20.0638 48.2918 20.3081 48.4482 20.3081C48.8195 20.3081 49.1323 19.9954 49.1323 19.6436C49.1225 19.2624 47.6175 13.7309 47.51 13.6918C47.4611 13.6722 47.1972 13.8872 46.9333 14.1609Z" fill="url(#paint4_linear_1101_10819)"/>
<path d="M16.4517 14.4932C12.9041 15.2066 10.1872 17.7574 9.50304 21.0118C9.39554 21.5297 9.35645 22.4484 9.35645 24.8623V28.0288H11.4576H13.5588V25.4096C13.5588 22.9175 13.5686 22.7709 13.7543 22.6048C13.9889 22.3898 14.4091 22.38 14.6143 22.595C14.7609 22.7416 14.7805 23.0934 14.8098 25.3901L14.8391 28.0288H17.6342H20.4391L19.3933 26.9635C18.4258 25.9862 18.3476 25.8787 18.3476 25.5269C18.3476 25.3217 18.4649 23.6896 18.6017 21.9109L18.8656 18.6663L18.6604 18.3828C18.5529 18.2265 18.2206 17.2589 17.9274 16.2425C17.5853 15.0307 17.3508 14.3857 17.2628 14.3759C17.1846 14.3661 16.823 14.4248 16.4517 14.4932Z" fill="url(#paint5_linear_1101_10819)"/>
<path d="M18.7383 14.454C18.7383 14.6788 19.6276 17.6205 19.7254 17.7182C19.8524 17.8452 21.8266 17.8452 21.9536 17.7182C22.0611 17.6107 22.9407 14.6983 22.9407 14.4638C22.9407 14.3758 22.452 14.3465 20.8395 14.3465C19.3442 14.3465 18.7383 14.3758 18.7383 14.454Z" fill="url(#paint6_linear_1101_10819)"/>
<path d="M24.221 14.6691C24.1721 14.8352 23.918 15.6855 23.6737 16.5455C23.4196 17.4055 23.1264 18.2362 23.0189 18.3926L22.8235 18.6663L23.0776 21.8132C23.4392 26.2892 23.5271 25.7028 22.2859 26.9635L21.2402 28.0288H24.0451H26.8499V25.5465C26.8499 24.1782 26.889 22.9468 26.9379 22.8198C27.0943 22.4191 27.6025 22.3214 27.9543 22.6243C28.1009 22.7709 28.1204 23.0348 28.1204 25.4096V28.0288H30.2314H32.3326L32.3033 24.5301C32.2642 20.6013 32.2447 20.4645 31.4335 18.9497C30.1435 16.5455 27.6513 14.8548 24.7292 14.4052C24.3383 14.3466 24.3187 14.3564 24.221 14.6691Z" fill="url(#paint7_linear_1101_10819)"/>
<path d="M20.0677 19.5459C20.0384 19.7804 19.9114 21.1878 19.8039 22.683L19.5889 25.3999L20.2143 26.0352L20.8398 26.6606L21.4653 26.0352L22.1005 25.3999L21.8758 22.5853C21.7585 21.0412 21.6412 19.6241 21.6119 19.4482L21.563 19.1354H20.8398H20.1166L20.0677 19.5459Z" fill="url(#paint8_linear_1101_10819)"/>
<path d="M1.27386 29.3971C0.882938 29.5534 0.8243 29.8271 0.892711 31.1562C0.990442 32.8665 1.16636 33.8829 1.41068 34.0784C1.50841 34.1663 2.38798 34.4497 3.35551 34.7136C4.31327 34.9775 5.15375 35.2413 5.21239 35.3C5.2808 35.3586 5.41762 35.6616 5.5349 35.9743C5.65217 36.2871 5.82809 36.7171 5.93559 36.9223C6.04309 37.1373 6.13105 37.3425 6.13105 37.3816C6.13105 37.4305 5.71081 38.2026 5.20261 39.1115C4.64555 40.1083 4.27418 40.8608 4.27418 41.027C4.27418 41.8088 7.73383 45.4737 9.38547 46.4412C9.93276 46.7637 9.98162 46.7442 11.9362 45.6398L13.4804 44.7603L14.0863 45.0241C14.4088 45.1707 14.9072 45.376 15.1711 45.4639L15.6695 45.6398L16.1777 47.5163C16.4611 48.5424 16.7641 49.4513 16.8423 49.5393C17.0768 49.7934 18.1616 49.94 20.3508 49.9888C22.6865 50.0475 24.5043 49.8716 24.8171 49.549C24.9148 49.4611 25.208 48.5522 25.5012 47.5065C25.7846 46.4705 26.068 45.6203 26.1169 45.6203C26.1755 45.6203 26.6642 45.4248 27.2115 45.1903L28.2083 44.7603L29.8502 45.6887C30.8666 46.2653 31.6093 46.6171 31.795 46.6269C32.7723 46.6562 37.4047 42.0238 37.4047 41.0074C37.4047 40.8511 37.0236 40.0594 36.4763 39.0821L35.5381 37.4305L35.9388 36.4727C36.1635 35.9352 36.3688 35.4466 36.4079 35.3684C36.447 35.3 37.307 35.0068 38.3234 34.7234C39.3398 34.44 40.2291 34.137 40.3171 34.049C40.5321 33.834 40.7178 32.7101 40.7862 31.1074C40.8741 29.1821 41.2455 29.358 37.0627 29.3189L33.7105 29.2896L33.6421 30.0519C33.388 33.0522 32.8407 34.997 31.7755 36.6877C29.8013 39.8347 26.6055 42.0043 22.9993 42.6591C21.8363 42.8643 19.8426 42.8643 18.6796 42.6591C15.8161 42.1411 13.3142 40.7338 11.2423 38.4567C9.25842 36.2871 8.41794 34.049 8.03679 29.9541L7.96838 29.2993L4.73351 29.3091C2.94505 29.3091 1.39114 29.3482 1.27386 29.3971Z" fill="url(#paint9_linear_1101_10819)"/>
<path d="M9.30767 30.1985C9.45426 32.2704 9.82564 33.7461 10.5782 35.261C12.3666 38.8183 15.8263 41.1639 19.8137 41.5157C23.3417 41.8187 26.6646 40.5873 29.1176 38.0658C30.4174 36.7171 31.5022 34.7918 31.9713 32.9936C32.1765 32.202 32.4209 30.3451 32.4209 29.5144V29.2994H20.8301H9.23926L9.30767 30.1985Z" fill="url(#paint10_linear_1101_10819)"/>
<defs>
<linearGradient id="paint0_linear_1101_10819" x1="31.5926" y1="15.4114" x2="105.681" y2="10.5605" gradientUnits="userSpaceOnUse">
<stop stopColor="#253466"/>
<stop offset="0.184592" stopColor="#413660"/>
<stop offset="1" stopColor="#E5413F"/>
</linearGradient>
<linearGradient id="paint1_linear_1101_10819" x1="35.0047" y1="12.5142" x2="81.2761" y2="9.50386" gradientUnits="userSpaceOnUse">
<stop stopColor="#253466"/>
<stop offset="0.184592" stopColor="#413660"/>
<stop offset="1" stopColor="#E5413F"/>
</linearGradient>
<linearGradient id="paint2_linear_1101_10819" x1="13.8846" y1="12.5645" x2="70.6241" y2="8.87742" gradientUnits="userSpaceOnUse">
<stop stopColor="#253466"/>
<stop offset="0.184592" stopColor="#413660"/>
<stop offset="1" stopColor="#E5413F"/>
</linearGradient>
<linearGradient id="paint3_linear_1101_10819" x1="31.5803" y1="21.6768" x2="67.3806" y2="19.5" gradientUnits="userSpaceOnUse">
<stop stopColor="#253466"/>
<stop offset="0.184592" stopColor="#413660"/>
<stop offset="1" stopColor="#E5413F"/>
</linearGradient>
<linearGradient id="paint4_linear_1101_10819" x1="41.0725" y1="21.6724" x2="76.5471" y2="19.5264" gradientUnits="userSpaceOnUse">
<stop stopColor="#253466"/>
<stop offset="0.184592" stopColor="#413660"/>
<stop offset="1" stopColor="#E5413F"/>
</linearGradient>
<linearGradient id="paint5_linear_1101_10819" x1="8.4031" y1="28.0288" x2="61.4247" y2="25.2288" gradientUnits="userSpaceOnUse">
<stop stopColor="#253466"/>
<stop offset="0.184592" stopColor="#413660"/>
<stop offset="1" stopColor="#E5413F"/>
</linearGradient>
<linearGradient id="paint6_linear_1101_10819" x1="18.3768" y1="17.8135" x2="38.4134" y2="16.2333" gradientUnits="userSpaceOnUse">
<stop stopColor="#253466"/>
<stop offset="0.184592" stopColor="#413660"/>
<stop offset="1" stopColor="#E5413F"/>
</linearGradient>
<linearGradient id="paint7_linear_1101_10819" x1="20.2861" y1="28.0288" x2="73.3541" y2="25.2234" gradientUnits="userSpaceOnUse">
<stop stopColor="#253466"/>
<stop offset="0.184592" stopColor="#413660"/>
<stop offset="1" stopColor="#E5413F"/>
</linearGradient>
<linearGradient id="paint8_linear_1101_10819" x1="19.3728" y1="26.6606" x2="31.417" y2="26.3991" gradientUnits="userSpaceOnUse">
<stop stopColor="#253466"/>
<stop offset="0.184592" stopColor="#413660"/>
<stop offset="1" stopColor="#E5413F"/>
</linearGradient>
<linearGradient id="paint9_linear_1101_10819" x1="-2.56979" y1="50" x2="186.195" y2="26.2997" gradientUnits="userSpaceOnUse">
<stop stopColor="#253466"/>
<stop offset="0.184592" stopColor="#413660"/>
<stop offset="1" stopColor="#E5413F"/>
</linearGradient>
<linearGradient id="paint10_linear_1101_10819" x1="7.24514" y1="41.5608" x2="116.803" y2="28.0843" gradientUnits="userSpaceOnUse">
<stop stopColor="#253466"/>
<stop offset="0.184592" stopColor="#413660"/>
<stop offset="1" stopColor="#E5413F"/>
</linearGradient>
</defs>
</svg>
