<svg width="51" height="50" viewBox="0 0 51 50" fill="none" xmlns="http://www.w3.org/2000/svg">
<path d="M22.0957 4.39453C20.2402 6.81641 18.7168 8.83789 18.7168 8.88672C18.7168 8.94531 19.3711 8.98438 20.4746 8.98438H22.2324V12.7344V16.4746L22.9746 16.7969C23.3848 16.9824 24.1172 17.3633 24.5957 17.6465C25.084 17.9297 25.5039 18.1641 25.5527 18.1641C25.5918 18.1641 25.9824 17.9492 26.4316 17.6855C26.8809 17.4219 27.6035 17.041 28.0527 16.8359L28.873 16.4746V12.7246V8.98438H30.6309C31.7344 8.98438 32.3887 8.94531 32.3887 8.88672C32.3887 8.75 25.6602 0 25.5527 0C25.5137 0 23.9512 1.98242 22.0957 4.39453Z" fill="url(#paint0_linear_1101_10843)"/>
<path d="M5.25991 18.1836C1.56851 20.8496 0.670068 21.543 0.767724 21.6406C0.836083 21.709 2.91616 23.2227 5.38686 25L9.87905 28.2422L9.90835 26.4648L9.92788 24.6875L13.8634 24.7266L17.7892 24.7656L18.5705 25.0293C20.2111 25.5762 21.3634 26.6309 21.9689 28.1445C22.1544 28.6133 22.174 28.9453 22.2423 31.543C22.2912 33.623 22.3595 34.6582 22.4767 35.2539C23.0236 37.998 24.2638 40.3125 26.2462 42.2852C28.3068 44.3359 30.8654 45.6934 33.8244 46.2988C34.7521 46.4941 35.2599 46.5234 38.0822 46.5625L41.2755 46.6016V48.3008C41.2755 49.4238 41.3146 50 41.383 50C41.5197 50 50.5529 43.4668 50.5529 43.3594C50.5529 43.2715 41.5001 36.7188 41.3732 36.7188C41.3146 36.7188 41.2755 37.3828 41.2755 38.4082V40.1074L39.0685 40.166C35.9142 40.2441 34.7423 40.0879 33.297 39.4043C31.2951 38.4668 29.9083 36.9531 29.1857 34.9316C28.9416 34.2578 28.9318 34.1113 28.8634 31.2012C28.7853 27.8711 28.6876 27.2168 28.0919 25.7129C26.8419 22.5684 24.1173 20.0586 20.7677 18.9648C19.1955 18.4473 19.0392 18.4277 14.3517 18.3887L9.92788 18.3496L9.90835 16.6016L9.87905 14.8535L5.25991 18.1836Z" fill="url(#paint1_linear_1101_10843)"/>
<path d="M41.1777 16.6016V18.3594H37.2031C33.0234 18.3594 32.291 18.418 30.7773 18.8379C29.957 19.0723 28.7949 19.541 28.2188 19.8828L27.7988 20.127L28.4238 20.8789C29.5078 22.1973 30.5625 24.0332 30.9336 25.2734C31.002 25.498 31.0801 25.6738 31.1094 25.6641C31.1484 25.6445 31.4219 25.5078 31.7148 25.3613C32.8574 24.7949 32.9844 24.7754 37.2422 24.7363L41.1777 24.6875L41.1973 26.4648L41.2266 28.2422L45.7188 25C48.1895 23.2227 50.2695 21.709 50.3379 21.6406C50.4355 21.543 49.5469 20.8594 45.9531 18.252C43.4727 16.4551 41.3828 14.9512 41.3047 14.9121C41.1973 14.8438 41.1777 15.1562 41.1777 16.6016Z" fill="url(#paint2_linear_1101_10843)"/>
<path d="M5.09382 39.9902C2.62312 41.7871 0.591868 43.291 0.572337 43.3496C0.54304 43.4473 9.55671 50 9.72273 50C9.79109 50 9.83015 49.4238 9.83015 48.3008V46.6016L13.0333 46.5527C16.627 46.5039 17.2227 46.4355 19.1173 45.8008C20.4454 45.3613 21.5782 44.8145 22.7012 44.0723C23.4141 43.6035 23.4923 43.5156 23.3848 43.3789C23.3165 43.2812 23.1016 43.0176 22.9063 42.7734C21.9786 41.6309 20.7091 39.3359 20.3673 38.2031C20.2305 37.7344 20.1817 37.7148 19.9278 37.998C19.6348 38.3203 18.629 39.0039 17.9454 39.3555C16.5098 40.0684 15.3282 40.2148 11.4708 40.1562L9.83015 40.1367V38.4277C9.83015 37.1191 9.80085 36.7188 9.71296 36.7285C9.6446 36.7285 7.56452 38.2031 5.09382 39.9902Z" fill="url(#paint3_linear_1101_10843)"/>
<defs>
<linearGradient id="paint0_linear_1101_10843" x1="17.5407" y1="18.1641" x2="82.9755" y2="14.9596" gradientUnits="userSpaceOnUse">
<stop stop-color="#253466"/>
<stop offset="0.184592" stop-color="#413660"/>
<stop offset="1" stop-color="#E5413F"/>
</linearGradient>
<linearGradient id="paint1_linear_1101_10843" x1="-3.52245" y1="50" x2="233.346" y2="28.1669" gradientUnits="userSpaceOnUse">
<stop stop-color="#253466"/>
<stop offset="0.184592" stop-color="#413660"/>
<stop offset="1" stop-color="#E5413F"/>
</linearGradient>
<linearGradient id="paint2_linear_1101_10843" x1="25.8594" y1="28.2422" x2="132.733" y2="16.489" gradientUnits="userSpaceOnUse">
<stop stop-color="#253466"/>
<stop offset="0.184592" stop-color="#413660"/>
<stop offset="1" stop-color="#E5413F"/>
</linearGradient>
<linearGradient id="paint3_linear_1101_10843" x1="-1.39348" y1="50" x2="106.881" y2="37.8703" gradientUnits="userSpaceOnUse">
<stop stop-color="#253466"/>
<stop offset="0.184592" stop-color="#413660"/>
<stop offset="1" stop-color="#E5413F"/>
</linearGradient>
</defs>
</svg>
