<svg width="18" height="19" viewBox="0 0 18 19" fill="none" xmlns="http://www.w3.org/2000/svg">
<path d="M7.806 0.556725C6.15848 0.777964 4.6198 1.44168 3.3213 2.48787C2.8597 2.8591 2.13539 3.60531 1.79013 4.06279C0.915704 5.23273 0.349018 6.53391 0.0863164 7.98508C0.0112587 8.40881 0 8.5813 0 9.49625C0 10.4112 0.0112587 10.5837 0.0863164 11.0074C0.41657 12.8261 1.22719 14.4235 2.4769 15.7172C3.75289 17.0334 5.24653 17.8883 6.98787 18.2858C8.21882 18.5708 9.73498 18.5708 10.9772 18.2895C14.3473 17.5283 17.0268 14.851 17.7887 11.4836C17.9988 10.5612 18.0589 9.27501 17.9388 8.34506C17.4059 4.28403 14.2084 1.0892 10.1403 0.552975C9.59237 0.481728 8.33516 0.481728 7.806 0.556725ZM9.25086 3.01659C9.31841 3.06534 9.41224 3.15159 9.45352 3.20783C9.53233 3.31283 9.53233 3.34283 9.54359 5.90019L9.55485 8.48381L9.73874 8.6563C10.0765 8.97503 10.2041 9.37626 10.099 9.79624C9.99393 10.1975 9.6862 10.5237 9.31091 10.6249C9.08574 10.6849 8.66166 10.6474 8.47026 10.5499C8.26385 10.445 8.03868 10.22 7.9336 10.0137C7.82101 9.79249 7.79474 9.37626 7.87731 9.12502C7.91108 9.02378 7.93735 8.91878 7.93735 8.89253C7.93735 8.87004 7.73845 8.51005 7.49826 8.09383C6.60508 6.56391 6.58631 6.52266 6.58631 6.39142C6.58631 6.01644 6.96911 5.71645 7.30311 5.8252C7.50952 5.89644 7.6071 6.01644 7.97863 6.66515C8.17378 7.00638 8.34266 7.28387 8.36143 7.28387C8.37644 7.28387 8.3877 6.39517 8.3877 5.30397C8.3877 3.39907 8.39145 3.32408 8.46276 3.20408C8.62788 2.93785 8.99942 2.84785 9.25086 3.01659Z" fill="black"/>
</svg>
