<svg width="51" height="50" viewBox="0 0 51 50" fill="none" xmlns="http://www.w3.org/2000/svg">
<path d="M33.845 0.133595C32.1552 0.592903 30.5923 1.8731 29.8597 3.40739C29.176 4.83418 29.2053 4.47259 29.2053 13.0236C29.2053 20.6657 29.2053 20.7438 29.4104 21.1934C29.7034 21.809 30.1821 22.327 30.7584 22.6299C31.1882 22.8547 31.3737 22.8938 32.0868 22.8938C33.2004 22.8938 33.3762 22.7863 36.1405 20.5582L38.3871 18.7405H41.5617C45.1759 18.7405 45.4982 18.6916 46.7778 18.0369C47.8425 17.4798 48.7998 16.5221 49.3468 15.4667C50.0696 14.0692 50.0696 14.0203 50.0403 9.08523L50.011 4.71691L49.7473 4.06215C49.0342 2.28355 47.7351 1.00335 45.8987 0.260637L45.3224 0.0260963L39.8523 0.00655174C35.2614 -0.0129929 34.2944 0.00655174 33.845 0.133595Z" fill="url(#paint0_linear_1101_10835)"/>
<path d="M9.08353 4.18914C6.8369 4.47254 4.53166 5.63547 2.94925 7.2968C1.71849 8.58678 0.92729 9.95493 0.370517 11.7531L0.0970146 12.6326L0.0677108 22.5517C0.0481749 31.3665 0.0579428 32.5588 0.194694 33.2526C1.00543 37.23 3.88698 40.3084 7.843 41.3931L8.79049 41.657L15.8527 41.6863L22.9052 41.7156V43.7581V45.8103H18.5291H14.1531L13.6549 46.0546C12.9223 46.426 12.6098 46.9244 12.5707 47.8137C12.5414 48.3805 12.5707 48.5955 12.7367 48.9082C12.9809 49.3968 13.4205 49.778 13.8991 49.9148C14.1531 49.993 17.6402 50.0125 25.269 49.993L36.2677 49.9636L36.6975 49.6705C37.3617 49.2014 37.5669 48.7421 37.5376 47.8528C37.4985 46.9244 37.2054 46.4358 36.4533 46.0546L35.9551 45.8103H31.5791H27.2031V43.7581V41.7156L34.2653 41.6863L41.3177 41.657L42.2652 41.3931C46.2017 40.3182 49.093 37.2496 49.9038 33.2819C50.0405 32.6467 50.0601 31.6304 50.0601 26.6171V20.7047L49.5521 21.0565C48.8488 21.5256 47.8037 22.0435 46.9832 22.3269C45.7426 22.7472 44.8537 22.8449 42.1969 22.8449H39.7256L37.8404 24.3694C35.1835 26.4998 34.1481 26.9787 32.087 26.9884C30.866 26.9884 30.1139 26.8125 29.0101 26.2653C27.3007 25.4248 26.0602 23.9883 25.4351 22.1119L25.2006 21.4279V13.1212C25.2006 8.54768 25.2299 4.64845 25.269 4.44323L25.3374 4.08164L17.5523 4.09142C13.274 4.10119 9.46448 4.14028 9.08353 4.18914ZM13.9284 12.7401C15.8332 13.2971 17.2984 14.9487 17.6305 16.9032C18.1482 19.9131 15.6476 22.8449 12.5511 22.8449C9.45471 22.8449 6.95411 19.9131 7.47181 16.9032C7.70624 15.4764 8.71234 13.991 9.8845 13.2971C11.0567 12.6033 12.6977 12.3785 13.9284 12.7401ZM14.8466 25.3369C15.6378 25.5519 16.8783 26.148 17.6305 26.6562C19.291 27.7898 20.7855 29.9495 20.7953 31.2493C20.8148 32.8129 19.0957 33.7803 17.777 32.9594C17.3863 32.7151 17.2202 32.5197 16.8295 31.7867C16.1164 30.4772 15.4034 29.8322 14.1531 29.3827C13.3326 29.0798 11.7697 29.0798 10.9492 29.3827C9.69891 29.8322 8.98585 30.4772 8.27279 31.7867C7.88207 32.5197 7.71601 32.7151 7.32529 32.9594C6.00662 33.7803 4.28746 32.8129 4.307 31.2493C4.31677 29.9691 5.82103 27.7702 7.44251 26.6757C8.46815 25.9819 9.73798 25.4346 10.9004 25.1903C11.5744 25.0535 14.1629 25.1414 14.8466 25.3369Z" fill="url(#paint1_linear_1101_10835)"/>
<defs>
<linearGradient id="paint0_linear_1101_10835" x1="27.412" y1="22.8938" x2="127.064" y2="16.9907" gradientUnits="userSpaceOnUse">
<stop stop-color="#253466"/>
<stop offset="0.184592" stop-color="#413660"/>
<stop offset="1" stop-color="#E5413F"/>
</linearGradient>
<linearGradient id="paint1_linear_1101_10835" x1="-4.24102" y1="50" x2="234.439" y2="33.0905" gradientUnits="userSpaceOnUse">
<stop stop-color="#253466"/>
<stop offset="0.184592" stop-color="#413660"/>
<stop offset="1" stop-color="#E5413F"/>
</linearGradient>
</defs>
</svg>
