<svg width="18" height="19" viewBox="0 0 18 19" fill="none" xmlns="http://www.w3.org/2000/svg">
<path d="M7.20119 0.581408C6.91588 0.693926 6.62253 0.987278 6.51403 1.28063L6.42964 1.50567V9.35786V17.2141H5.78667H5.14371V13.2156C5.14371 9.26543 5.14371 9.21721 5.05932 8.99619C4.9468 8.69882 4.65747 8.40949 4.3601 8.29697C4.14712 8.2166 4.05871 8.21258 2.57185 8.21258C1.085 8.21258 0.996594 8.2166 0.783612 8.29697C0.486241 8.40949 0.196908 8.69882 0.084389 8.99619C0 9.21721 0 9.2574 0 13.6496C0 17.9977 0 18.0821 0.0803705 18.2107C0.124574 18.283 0.217 18.3754 0.289334 18.4196C0.421945 18.5 0.510352 18.5 9.00149 18.5C17.4926 18.5 17.581 18.5 17.7136 18.4196C17.786 18.3754 17.8784 18.283 17.9226 18.2107C18.003 18.0781 18.003 17.9937 18.003 11.7208C18.003 5.37149 18.003 5.36345 17.9186 5.13841C17.8061 4.84104 17.5167 4.55171 17.2194 4.43919C17.0064 4.35882 16.918 4.3548 15.4311 4.3548C13.9443 4.3548 13.8559 4.35882 13.6429 4.43919C13.4982 4.49143 13.3495 4.59189 13.2209 4.71647C13.0964 4.84506 12.9959 4.99374 12.9437 5.13841C12.8593 5.36345 12.8593 5.37952 12.8593 11.2868V17.2141H12.2163H11.5733V9.35786V1.50567L11.489 1.28063C11.3764 0.983259 11.0871 0.693926 10.7897 0.581408C10.5768 0.501036 10.4924 0.497017 8.98944 0.501036C7.5066 0.501036 7.40212 0.505054 7.20119 0.581408ZM10.2874 2.42591V3.06887H9.00149H7.71556V2.42591V1.78295H9.00149H10.2874V2.42591ZM16.7171 6.28369V6.92665H15.4311H14.1452V6.28369V5.64073H15.4311H16.7171V6.28369ZM3.85778 10.1415V10.7844H2.57185H1.28593V10.1415V9.49851H2.57185H3.85778V10.1415Z" fill="black"/>
</svg>
