<svg width="12" height="12" viewBox="0 0 12 12" fill="none" xmlns="http://www.w3.org/2000/svg">
<rect y="12" width="12" height="12" rx="6" transform="rotate(-90 0 12)" fill="#54AC48"/>
<path d="M5.05198 7.3503L8.34038 4.11454C8.41798 4.03818 8.50852 4 8.61199 4C8.71546 4 8.80599 4.03818 8.8836 4.11454C8.9612 4.1909 9 4.28164 9 4.38676C9 4.49189 8.9612 4.5825 8.8836 4.65861L5.32359 8.17117C5.24599 8.24753 5.15545 8.28571 5.05198 8.28571C4.94851 8.28571 4.85798 8.24753 4.78038 8.17117L3.11193 6.52943C3.03432 6.45307 2.99707 6.36246 3.00018 6.25759C3.00328 6.15272 3.04377 6.06198 3.12163 5.98536C3.19949 5.90875 3.29171 5.87057 3.39828 5.87082C3.50485 5.87108 3.59694 5.90926 3.67454 5.98536L5.05198 7.3503Z" fill="white"/>
</svg>
