<svg width="51" height="50" viewBox="0 0 51 50" fill="none" xmlns="http://www.w3.org/2000/svg">
<path d="M22.7104 0.0490723C22.3394 0.0979004 21.9976 0.195557 21.9487 0.263916C21.9097 0.332275 21.3237 1.33813 20.6499 2.50024C19.9761 3.66235 19.3706 4.65845 19.3022 4.71704C19.2339 4.77563 18.853 4.94165 18.4526 5.07837C18.0522 5.22485 17.2905 5.53735 16.7632 5.78149L15.8159 6.22095L13.2476 5.52759L10.689 4.84399L10.3667 5.0686C9.21436 5.88892 6.81201 8.29126 5.9917 9.4436L5.76709 9.76587L6.45068 12.3245L7.14404 14.8831L6.65576 15.9377C6.39209 16.5139 6.09912 17.2366 6.00146 17.5295C5.91357 17.8225 5.77686 18.1643 5.69873 18.2717C5.63037 18.3889 4.55615 19.0725 3.32568 19.7854L1.07959 21.0745L1.00146 21.5237C0.903809 22.1096 0.903809 27.012 1.00146 27.5979L1.07959 28.0471L3.32568 29.3362C4.55615 30.0491 5.63037 30.7327 5.69873 30.8499C5.77686 30.9573 5.91357 31.2991 6.00146 31.592C6.09912 31.885 6.39209 32.6077 6.65576 33.1838L7.14404 34.2385L6.45068 36.7971C5.81592 39.1604 5.77686 39.3752 5.91357 39.5803C6.55811 40.5667 9.26318 43.2913 10.3472 44.0432L10.689 44.2776L13.2476 43.594L15.8062 42.9006L16.7632 43.3401C17.2905 43.5842 18.0522 43.8967 18.4526 44.0334C18.853 44.1799 19.2339 44.3459 19.3022 44.4045C19.3706 44.4534 20.0054 45.5081 20.7085 46.7385L21.9976 48.9651L22.4468 49.0432C23.0327 49.1409 27.9351 49.1409 28.521 49.0432L28.9604 48.9651L30.2104 46.8069L31.4604 44.6487L31.1187 43.8088C30.4741 42.2268 30.2007 40.4397 30.3569 38.9163C30.4058 38.4573 30.4351 38.0764 30.4253 38.0667C30.4155 38.0569 30.0347 38.1545 29.5854 38.2913C28.0522 38.7307 27.1929 38.8577 25.5327 38.8577C23.7651 38.8577 22.73 38.7014 21.2163 38.2229C16.1089 36.6018 12.3198 32.2854 11.353 26.9827C11.1284 25.7522 11.1284 23.3596 11.3628 22.1194C11.7046 20.2053 12.5249 18.1838 13.6382 16.5334C16.519 12.2463 21.7729 9.76587 26.8511 10.303C32.5444 10.9084 37.2612 14.6584 39.0483 20.0198C39.6245 21.7385 39.7808 22.7444 39.771 24.6584C39.771 26.3479 39.605 27.4709 39.1558 28.8479C39.0386 29.1897 38.9604 29.4729 38.98 29.4924C38.9995 29.512 39.4097 29.4827 39.8882 29.4338C41.4019 29.2776 43.1206 29.551 44.7417 30.1956L45.5815 30.5276L47.7397 29.2874L49.8882 28.0374L49.9663 27.5979C50.064 27.012 50.064 22.1096 49.9663 21.5237L49.8882 21.0745L47.6519 19.7854C46.4312 19.0725 45.3765 18.4377 45.3276 18.3792C45.2788 18.3108 45.1128 17.9299 44.9761 17.5295C44.8296 17.1292 44.5073 16.3674 44.2729 15.8303L43.8237 14.8635L44.5171 12.3147L45.2007 9.76587L44.9761 9.4436C44.1558 8.29126 41.7437 5.87915 40.6011 5.0686L40.2788 4.84399L37.7202 5.52759L35.1616 6.22095L34.1558 5.76196C33.5991 5.50806 32.8472 5.19556 32.4761 5.0686C32.105 4.94165 31.7534 4.7854 31.6753 4.72681C31.6069 4.66821 30.9722 3.62329 30.2593 2.39282C29.2046 0.56665 28.9312 0.156494 28.7163 0.0979004C28.3062 0.000244141 23.4526 -0.0388184 22.7104 0.0490723Z" fill="url(#paint0_linear_1101_10860)"/>
<path d="M23.9018 11.3869C20.9428 11.7483 18.2182 13.0764 16.1088 15.1858C12.808 18.4963 11.4799 23.2815 12.6322 27.7932C13.2475 30.2151 14.3607 32.1877 16.1088 33.9358C18.433 36.2502 21.3822 37.5783 24.7514 37.8029C26.4311 37.9104 28.726 37.549 30.2006 36.9533L30.767 36.719L31.099 35.9182C32.1439 33.3401 34.2533 31.2209 36.8314 30.176L37.642 29.844L37.8764 29.2776C38.4721 27.8029 38.8334 25.508 38.726 23.8283C38.2572 16.8361 32.8275 11.5529 25.8939 11.3283C25.2104 11.3088 24.3217 11.3283 23.9018 11.3869ZM21.5873 18.3986C23.14 18.9846 24.0189 20.7326 23.5893 22.3928C23.2279 23.8283 22.5346 24.6486 20.0639 26.5627C18.2475 27.969 17.6322 28.5842 17.2416 29.3752L16.9779 29.883L20.1811 29.9123C22.974 29.9319 23.3939 29.9514 23.5502 30.0979C23.7943 30.3127 23.7748 30.674 23.5111 30.8498C23.3256 30.9865 22.7982 31.0061 19.7709 31.0061C15.6596 31.0061 15.7475 31.0256 15.8451 30.2053C15.8842 29.9416 16.0697 29.3947 16.265 28.9846C16.724 28.0276 17.7104 27.0217 19.5756 25.6154C21.7436 23.9748 22.4564 23.0959 22.6127 21.8557C22.7592 20.635 22.1537 19.6584 21.0307 19.3264C20.3568 19.1311 19.5268 19.1897 18.8822 19.4729C18.3744 19.6975 17.5834 20.4201 17.3295 20.8889C17.1147 21.2893 16.8314 21.4455 16.5287 21.3283C15.9818 21.1233 16.2553 20.3225 17.183 19.4045C18.3842 18.2229 20.0736 17.8322 21.5873 18.3986ZM32.7885 18.2717L33.0033 18.4182V22.0315V25.635H33.9213C34.9272 25.635 35.1518 25.7326 35.1518 26.1721C35.1518 26.5725 34.8197 26.7092 33.8627 26.7092H33.0033V28.6819C33.0033 30.3713 32.9838 30.674 32.8373 30.8303C32.6322 31.0647 32.3686 31.0549 32.1244 30.8108C31.9389 30.6252 31.9291 30.4885 31.9291 28.6623V26.7092H28.6088C26.3236 26.7092 25.2201 26.6701 25.0541 26.592C24.7318 26.4553 24.6439 26.1721 24.8295 25.8986C24.9662 25.6936 31.0209 19.3654 31.8803 18.5256C32.349 18.0764 32.4662 18.0373 32.7885 18.2717Z" fill="url(#paint1_linear_1101_10860)"/>
<path d="M29.1948 22.8127L26.5093 25.5861L29.1851 25.6154C30.6597 25.6252 31.8804 25.6252 31.8999 25.6056C31.9194 25.5861 31.9194 24.3263 31.9097 22.8029L31.8804 20.0392L29.1948 22.8127Z" fill="url(#paint2_linear_1101_10860)"/>
<path d="M39.7321 30.5276C35.7868 30.9573 32.5642 33.8186 31.6267 37.7151C31.3532 38.8186 31.3434 40.6545 31.5876 41.7971C32.0563 43.9944 33.4724 46.1624 35.2985 47.4709C36.3239 48.2034 37.8474 48.8479 39.0974 49.0627C39.8493 49.1995 41.6852 49.1995 42.4372 49.0627C43.6286 48.8577 45.0739 48.262 46.0895 47.5784C46.7341 47.1389 47.9059 45.9866 48.3845 45.3127C49.1559 44.219 49.7614 42.7932 49.986 41.5139C50.1423 40.6741 50.113 38.7502 49.947 37.969C49.4294 35.4983 48.0134 33.4084 45.9235 32.0217C44.1462 30.8303 41.8903 30.2834 39.7321 30.5276ZM44.3317 34.9124C44.4392 35.0198 44.527 35.1565 44.527 35.2053C44.527 35.2639 43.3649 37.6272 41.9392 40.4788C39.1852 45.9866 39.0974 46.1233 38.6188 45.8108C38.4821 45.7229 38.3747 45.5667 38.3747 45.4592C38.3747 45.3518 39.4294 43.1545 40.7184 40.5764C42.0075 37.9983 43.0622 35.8694 43.0622 35.8401C43.0622 35.8108 41.7927 35.7913 40.2302 35.7913C37.5251 35.7913 37.3884 35.7815 37.2028 35.5959C36.9684 35.3616 36.9587 35.2249 37.1638 34.9319L37.3102 34.717H40.7282C44.0095 34.717 44.1462 34.7268 44.3317 34.9124Z" fill="url(#paint3_linear_1101_10860)"/>
<defs>
<linearGradient id="paint0_linear_1101_10860" x1="-3.29641" y1="49.1164" x2="231.325" y2="33.853" gradientUnits="userSpaceOnUse">
<stop stop-color="#253466"/>
<stop offset="0.184592" stop-color="#413660"/>
<stop offset="1" stop-color="#E5413F"/>
</linearGradient>
<linearGradient id="paint1_linear_1101_10860" x1="9.94277" y1="37.8218" x2="136.64" y2="29.5723" gradientUnits="userSpaceOnUse">
<stop stop-color="#253466"/>
<stop offset="0.184592" stop-color="#413660"/>
<stop offset="1" stop-color="#E5413F"/>
</linearGradient>
<linearGradient id="paint2_linear_1101_10860" x1="26.0442" y1="25.6218" x2="51.8811" y2="23.9937" gradientUnits="userSpaceOnUse">
<stop stop-color="#253466"/>
<stop offset="0.184592" stop-color="#413660"/>
<stop offset="1" stop-color="#E5413F"/>
</linearGradient>
<linearGradient id="paint3_linear_1101_10860" x1="29.8061" y1="49.1653" x2="119.029" y2="43.366" gradientUnits="userSpaceOnUse">
<stop stop-color="#253466"/>
<stop offset="0.184592" stop-color="#413660"/>
<stop offset="1" stop-color="#E5413F"/>
</linearGradient>
</defs>
</svg>
