<svg width="16" height="19" viewBox="0 0 16 19" fill="none" xmlns="http://www.w3.org/2000/svg">
<path d="M5.63877 0.581299C5.22106 0.741959 4.90777 1.13156 4.82342 1.59747C4.76719 1.90674 4.76719 2.5052 4.82342 2.80644C4.93187 3.39687 5.33754 3.79852 5.91993 3.90696C6.24527 3.96721 9.66331 3.96721 9.98061 3.90696C10.571 3.79852 10.9727 3.39285 11.0811 2.81046C11.1374 2.50922 11.1374 1.95896 11.0811 1.62157C11.0048 1.13558 10.6915 0.741959 10.2578 0.577283C10.0449 0.500969 9.9525 0.496953 7.94023 0.500969C5.95206 0.500969 5.83157 0.504986 5.63877 0.581299Z" fill="black"/>
<path d="M2.02836 2.24823C1.2572 2.4129 0.570374 2.96718 0.237004 3.69015C-0.00800259 4.23238 3.04208e-05 3.98737 3.04208e-05 10.3656C3.04208e-05 15.3179 0.0120799 16.2216 0.060278 16.4626C0.25307 17.3864 1.03227 18.1978 1.94803 18.4307C2.30952 18.5231 13.5999 18.5231 13.9574 18.4307C14.6603 18.25 15.3029 17.7318 15.6202 17.0852C15.9214 16.4707 15.9054 16.8562 15.9054 10.3656C15.9054 3.91909 15.9174 4.21631 15.6443 3.64999C15.2909 2.91497 14.6442 2.4129 13.8449 2.24823C13.632 2.20405 13.3188 2.18396 12.8006 2.18396H12.0616L12.0375 2.53742C11.9933 3.2644 11.7965 3.71827 11.3426 4.17615C11.1378 4.38501 10.9771 4.50149 10.7602 4.60591C10.2381 4.85895 10.2662 4.85494 7.93262 4.85494C5.9806 4.85494 5.78379 4.8469 5.56289 4.78264C4.94033 4.58985 4.38203 4.12393 4.12498 3.58572C3.95628 3.22022 3.90809 3.03546 3.87194 2.55348L3.84382 2.18396L3.07667 2.18798C2.56256 2.18798 2.21714 2.21208 2.02836 2.24823ZM10.3747 9.42973C10.447 9.45785 10.5594 9.5422 10.6197 9.61851C10.7201 9.73499 10.7321 9.77515 10.7161 9.96393C10.704 10.1166 10.6719 10.2049 10.5996 10.2812C10.4309 10.462 7.27793 12.9884 7.16949 13.0285C7.00883 13.0888 6.86022 13.0767 6.72365 12.9924C6.61923 12.9281 5.5187 11.5745 5.2496 11.1809C5.105 10.9721 5.2014 10.5905 5.44239 10.4339C5.5669 10.3535 5.84404 10.3415 5.97658 10.4138C6.0288 10.4419 6.28586 10.7391 6.55094 11.0725C6.82005 11.4099 7.04899 11.687 7.06907 11.695C7.08916 11.7031 7.71573 11.2131 8.4628 10.6106C9.20987 10.0081 9.88464 9.48195 9.96095 9.4458C10.1256 9.35744 10.2019 9.35744 10.3747 9.42973Z" fill="black"/>
</svg>
