<svg width="10" height="6" viewBox="0 0 10 6" fill="none" xmlns="http://www.w3.org/2000/svg">
<path d="M1.2618 5.51509C1.02283 5.77577 0.611819 5.77567 0.372967 5.51488C0.161913 5.28443 0.161965 4.93091 0.373089 4.70053L4.45412 0.247226C4.5255 0.168879 4.61037 0.106701 4.70385 0.0642721C4.79734 0.0218429 4.89759 -2.23033e-07 4.99884 -2.18608e-07C5.1001 -2.14182e-07 5.20035 0.0218429 5.29384 0.0642721C5.38732 0.106701 5.47219 0.168879 5.54356 0.247226L9.62673 4.70055C9.83792 4.93087 9.83793 5.28444 9.62677 5.51478C9.38802 5.77523 8.97742 5.77524 8.73864 5.51482L5 1.43731L1.2618 5.51509Z" fill="black"/>
</svg>
